<?xml version="1.0" standalone="no"?>
<!DOCTYPE svg PUBLIC "-//W3C//DTD SVG 20010904//EN"
 "http://www.w3.org/TR/2001/REC-SVG-20010904/DTD/svg10.dtd">
<svg version="1.0" xmlns="http://www.w3.org/2000/svg"
 width="900.000000pt" height="900.000000pt" viewBox="0 0 900.000000 900.000000"
 preserveAspectRatio="xMidYMid meet">

<g transform="translate(0.000000,900.000000) scale(0.100000,-0.100000)"
fill="#000000" stroke="none">
<path d="M4180 8193 c-495 -49 -889 -156 -1296 -353 -325 -156 -635 -363 -854
-569 -70 -66 -74 -71 -55 -83 11 -6 49 -43 85 -82 36 -39 77 -83 92 -99 16
-16 28 -32 28 -35 0 -4 21 -29 48 -57 26 -27 55 -62 65 -78 l18 -27 97 84
c197 170 426 322 661 441 958 480 2107 436 3026 -118 1048 -630 1630 -1803
1504 -3027 -107 -1042 -738 -1962 -1687 -2462 l-123 -65 24 -27 c13 -14 27
-26 30 -26 3 0 17 -10 30 -22 135 -127 207 -198 207 -205 0 -4 22 -34 49 -65
l48 -56 109 61 c491 280 906 659 1216 1112 368 537 579 1124 639 1775 15 164
6 637 -15 785 -61 433 -173 800 -355 1165 -185 371 -401 671 -696 965 -617
618 -1402 984 -2280 1065 -101 9 -532 12 -615 3z"/>
<path d="M4987 7476 c-3 -8 -1 -45 4 -81 7 -55 6 -79 -8 -129 -18 -66 -76
-201 -90 -209 -4 -2 -53 2 -108 10 -55 7 -182 14 -281 16 l-181 2 -64 71
c-116 128 -257 215 -410 254 -86 22 -146 20 -155 -5 -3 -7 7 -37 23 -66 27
-52 28 -59 28 -203 0 -122 -3 -150 -15 -156 -8 -4 -73 -29 -145 -55 -312 -113
-591 -286 -866 -536 l-86 -78 -69 16 c-82 18 -279 21 -346 5 -138 -34 -244
-102 -295 -190 -24 -41 -28 -58 -29 -137 -1 -50 -8 -112 -17 -140 -33 -106
-50 -218 -44 -303 6 -100 47 -195 124 -288 l50 -60 -19 -75 c-116 -456 -91
-993 69 -1458 l36 -105 -18 -45 c-10 -26 -33 -90 -51 -144 -38 -111 -42 -175
-24 -387 21 -236 28 -368 21 -399 l-6 -33 -51 69 c-337 451 -545 970 -614
1536 l-12 97 -32 1 c-93 3 -244 32 -341 64 -91 31 -137 48 -152 58 -17 11 -17
-60 2 -235 29 -280 77 -510 156 -754 422 -1305 1513 -2259 2858 -2500 150 -27
151 -27 135 -16 -15 9 19 112 71 212 21 41 45 89 54 105 8 17 36 64 62 105 26
41 47 75 46 77 -2 1 -68 11 -147 23 -175 25 -325 58 -485 107 -66 20 -121 36
-122 37 -14 11 119 287 157 326 31 32 87 50 167 56 47 4 56 1 87 -27 34 -30
56 -32 56 -5 0 8 14 16 31 20 27 5 40 -2 112 -63 45 -38 117 -105 159 -148
106 -111 145 -132 176 -101 9 9 12 6 12 -14 0 -16 -9 -33 -21 -42 -15 -10 -19
-20 -15 -33 7 -16 9 -15 22 10 8 15 19 27 25 27 21 0 -7 202 -34 238 -6 8 -6
12 2 12 21 0 62 -77 71 -136 15 -91 13 -112 -15 -138 -30 -28 -32 -46 -5 -46
11 0 20 6 20 14 0 7 9 16 19 19 16 4 21 15 23 55 l3 51 63 -49 c76 -59 116
-80 151 -79 14 0 60 23 101 50 41 27 102 63 135 80 33 16 67 34 75 39 28 16
99 33 113 27 17 -6 94 18 117 37 19 16 218 116 230 116 15 0 12 -70 -6 -152
-9 -40 -20 -92 -24 -116 -8 -49 -3 -51 71 -25 48 17 49 19 49 59 0 49 32 159
65 224 22 44 74 98 165 172 26 21 97 58 169 87 150 61 184 83 258 173 64 76
153 207 153 224 0 7 19 40 43 75 48 70 77 136 77 173 0 30 13 40 75 59 74 22
158 61 240 112 99 62 141 119 187 255 24 70 26 89 27 267 1 180 -1 197 -25
267 -21 63 -23 79 -13 98 17 31 28 171 19 238 -4 33 -2 101 7 170 30 253 15
598 -39 855 -150 728 -660 1395 -1325 1733 l-112 57 -16 60 c-50 177 -175 362
-328 483 -104 82 -196 116 -210 78z m159 -158 c75 -67 93 -86 145 -159 138
-193 190 -390 158 -602 -8 -57 -40 -165 -55 -185 -1 -2 -23 17 -48 42 l-47 45
18 58 c11 39 16 89 16 153 -2 133 -33 247 -104 376 -54 98 -70 117 -97 112
l-22 -3 21 -40 c15 -27 18 -40 10 -43 -33 -11 -131 -148 -174 -242 -41 -89
-58 -153 -60 -229 -1 -39 -4 -71 -7 -71 -3 0 -16 -3 -29 -7 l-24 -6 6 74 c5
67 46 229 68 269 5 8 25 56 45 105 20 50 51 127 69 172 38 94 56 170 48 201
-8 32 9 27 63 -20z m-1195 -33 c84 -43 159 -98 214 -156 142 -151 196 -296
187 -501 l-2 -38 -47 0 -48 0 -2 84 c0 47 -6 102 -13 123 -20 63 -69 156 -116
218 -51 69 -181 185 -206 185 -26 0 -22 -26 9 -54 21 -20 24 -28 15 -39 -46
-55 -79 -277 -60 -405 12 -83 32 -142 48 -142 6 0 10 -7 10 -15 0 -24 -37 -17
-59 11 -42 53 -53 149 -49 445 2 151 -1 289 -6 306 l-8 33 39 -14 c22 -8 64
-26 94 -41z m109 -268 c88 -111 129 -217 132 -343 3 -85 2 -87 -22 -94 -40
-12 -161 -33 -165 -29 -2 3 -9 45 -16 94 -13 101 -7 291 11 345 6 19 13 41 16
48 6 19 17 14 44 -21z m1170 -107 c28 -86 40 -155 40 -235 0 -73 -16 -173 -29
-188 -4 -4 -24 -1 -43 8 -20 8 -69 20 -110 26 -40 6 -76 14 -80 17 -8 9 52
204 81 262 33 66 105 170 114 167 5 -1 17 -27 27 -57z m-740 -435 c47 -8 103
-18 125 -22 l40 -9 -27 -17 c-16 -9 -39 -23 -52 -31 -13 -8 -26 -24 -29 -35
-7 -28 16 -27 85 0 50 20 111 39 188 59 65 17 205 22 264 10 177 -37 264 -127
298 -310 9 -51 6 -175 -8 -262 -5 -33 -4 -38 14 -38 14 0 25 12 35 38 22 51
22 13 1 -80 -11 -47 -13 -73 -6 -80 17 -17 48 25 61 83 20 88 20 88 58 14 64
-125 76 -181 77 -360 l1 -160 -33 -65 c-43 -87 -160 -229 -257 -313 -79 -69
-250 -163 -305 -169 -21 -3 -24 1 -25 29 0 67 -37 54 -65 -23 -84 -239 -311
-347 -611 -289 -185 35 -302 103 -489 285 -47 46 -121 109 -165 141 -44 32
-92 67 -106 78 -41 32 -79 43 -149 44 -83 1 -147 -27 -255 -108 -102 -77 -146
-95 -238 -95 -126 0 -277 54 -310 110 -19 31 -22 67 -7 90 8 13 11 13 22 -1
40 -51 300 -78 433 -45 33 8 105 31 160 51 229 84 214 89 585 -173 115 -81
297 -192 315 -192 4 0 20 -11 36 -24 54 -46 134 -69 244 -70 146 -2 248 35
344 124 86 78 156 220 169 341 10 98 -5 275 -31 344 -25 70 -110 171 -185 220
-86 56 -146 70 -302 70 -130 0 -150 -2 -189 -23 -25 -12 -51 -22 -58 -22 -13
0 -315 -100 -483 -160 -47 -16 -146 -48 -220 -70 -74 -22 -148 -44 -165 -50
-16 -5 -113 -28 -215 -51 -226 -50 -359 -60 -453 -35 -83 23 -167 81 -182 126
-8 23 -19 36 -33 38 -18 3 -21 -2 -24 -40 l-3 -43 -64 -3 c-88 -5 -167 19
-258 78 -94 62 -111 84 -119 154 -7 59 13 263 27 271 4 3 18 -9 30 -27 115
-165 291 -298 397 -298 117 0 421 156 615 318 122 101 154 179 105 252 -22 32
-106 107 -145 128 -80 45 192 -13 363 -78 128 -48 259 -120 444 -244 233 -156
226 -153 345 -173 22 -3 45 -13 50 -20 9 -13 30 -10 136 16 344 85 541 0 633
-272 9 -26 16 -58 16 -71 0 -28 24 -51 45 -42 26 9 17 102 -20 224 -6 18 -4
22 13 22 35 0 115 -31 145 -56 57 -48 81 -11 28 40 l-30 28 33 34 c35 36 89
139 112 214 30 96 9 317 -37 381 -24 34 -100 81 -157 98 -56 16 -163 7 -217
-19 -22 -10 -94 -42 -160 -70 -66 -29 -129 -58 -140 -65 -51 -31 -294 -163
-323 -175 -47 -18 -159 -8 -177 16 -23 31 0 121 39 153 21 18 21 51 -1 51 -9
0 -38 -22 -63 -49 l-46 -49 -25 46 c-65 125 -132 200 -214 238 -73 35 -108 30
-162 -19 -29 -26 -29 -13 0 38 42 76 147 105 234 65 40 -18 163 -132 163 -151
0 -14 30 -10 36 5 5 14 -31 92 -47 102 -17 10 -9 32 14 37 165 36 217 47 242
50 65 9 184 5 265 -8z m-739 -232 c38 -41 89 -108 89 -118 0 -3 -19 -23 -41
-45 -39 -37 -41 -42 -37 -85 3 -25 3 -45 0 -45 -3 0 -29 16 -57 35 -56 36 -75
70 -75 130 0 60 47 165 73 165 7 0 29 -17 48 -37z m1263 -128 c29 -30 59 -128
59 -195 0 -86 -30 -155 -93 -214 -66 -62 -90 -66 -135 -27 -110 96 -276 127
-472 86 -82 -17 -83 -17 -113 5 -36 26 -30 39 27 59 21 7 146 66 278 131 231
114 365 169 412 170 12 0 28 -7 37 -15z m-1148 -60 c8 -20 -11 -42 -41 -48
-30 -5 -34 17 -8 45 20 22 42 23 49 3z m88 -128 c8 -13 7 -20 -4 -27 -20 -13
-97 -13 -105 0 -3 6 3 10 13 10 11 0 30 9 43 20 27 22 38 21 53 -3z m2089
-397 c-4 -11 -2 -11 4 -3 5 8 14 9 23 3 11 -7 9 -11 -10 -18 -20 -8 -35 -36
-79 -146 l-54 -137 54 -136 54 -135 135 -55 135 -54 105 42 c58 24 120 49 137
56 31 13 33 12 48 -17 15 -29 15 -30 -16 -46 -18 -9 -88 -38 -156 -65 l-123
-49 -162 67 -163 68 -55 137 c-30 76 -61 138 -68 138 -9 0 -9 -5 -2 -17 5 -10
34 -76 63 -148 60 -145 45 -131 207 -200 47 -20 96 -41 110 -47 14 -6 33 -14
42 -19 23 -12 55 -11 63 1 4 6 13 5 24 -2 16 -10 17 -14 6 -25 -17 -16 -47
-17 -64 0 -10 10 -11 8 -5 -6 5 -15 2 -17 -25 -12 -24 4 -29 2 -25 -10 8 -19
-3 -19 -22 0 -9 8 -21 15 -27 15 -7 0 -6 -4 3 -10 11 -7 5 -8 -20 -5 -19 2
-42 13 -50 23 -16 19 -61 23 -91 8 -11 -6 -11 -5 1 6 19 16 22 48 5 48 -7 0
-16 6 -18 13 -4 9 -8 8 -16 -3 -10 -13 -11 -13 -12 0 -1 8 -1 19 0 23 1 5 -3
6 -9 2 -17 -11 -52 5 -46 21 3 8 2 12 -3 9 -6 -3 -14 3 -20 12 -5 10 -13 18
-18 18 -4 0 -7 4 -5 9 1 4 -7 16 -19 26 -11 11 -18 24 -14 29 3 6 2 11 -2 11
-5 0 -14 20 -21 46 -8 29 -16 43 -24 38 -7 -4 -8 -3 -4 4 4 7 0 22 -8 34 -9
12 -16 18 -16 13 0 -18 -17 10 -24 38 -4 17 -3 26 3 23 5 -3 11 0 14 8 7 18
-69 31 -89 15 -11 -9 -14 -8 -14 7 1 56 9 64 69 65 44 0 51 2 34 9 -24 10 -32
53 -14 65 5 3 7 17 5 31 -4 21 -1 25 10 21 9 -4 15 -3 15 1 -3 18 3 31 26 56
14 15 23 31 21 35 -3 4 13 7 34 6 26 -1 40 3 40 11 0 7 4 15 10 19 5 3 5 -8
-2 -26 -6 -17 -13 -27 -17 -22 -9 12 -31 15 -31 3 0 -5 7 -10 16 -10 20 0 14
-22 -31 -125 -8 -16 -16 -41 -20 -55 -5 -22 -5 -23 6 -7 6 11 12 24 13 30 1 7
10 27 19 44 10 18 18 36 18 40 1 5 5 18 10 31 5 13 9 25 9 27 0 2 14 34 31 70
22 45 37 65 50 65 10 0 21 5 25 12 9 15 23 -20 17 -42z m-1514 -91 c60 -26
125 -81 141 -119 30 -73 -24 -233 -114 -335 -51 -58 -76 -57 -76 2 -1 53 -35
204 -60 261 -12 26 -34 61 -50 77 -21 22 -30 42 -32 75 -4 54 -20 56 -31 3
-31 -142 -139 -406 -164 -401 -8 2 -27 40 -43 85 -53 154 -112 233 -172 233
-29 0 -57 -33 -103 -117 -15 -29 -36 -60 -45 -68 -16 -15 -20 -12 -48 39 -17
30 -36 57 -42 61 -16 10 -12 32 8 38 9 3 60 23 112 45 113 47 285 105 355 121
72 16 223 29 275 24 25 -3 65 -14 89 -24z m1271 -26 c0 -5 -5 -15 -10 -23 -7
-12 -9 -10 -7 8 1 19 17 33 17 15z m476 -9 c37 -18 64 -58 64 -95 0 -31 -34
-82 -87 -129 l-46 -40 67 0 66 0 0 -40 0 -40 -130 0 -130 0 0 38 c0 34 8 46
80 117 44 44 80 85 80 91 0 18 -26 35 -43 28 -8 -3 -17 -14 -20 -25 -4 -15
-14 -19 -51 -19 -44 0 -46 1 -46 28 0 80 109 127 196 86z m244 -164 l0 -180
-45 0 -44 0 -3 133 -3 132 -27 -3 c-26 -3 -28 -1 -28 33 0 31 4 38 33 50 17 8
51 14 75 15 l42 0 0 -180z m-794 42 c-13 -12 -16 8 -9 69 l8 64 3 -64 c2 -35
1 -66 -2 -69z m-1354 -55 c22 -59 68 -277 76 -364 5 -51 11 -68 22 -68 9 0 17
12 20 31 4 23 24 50 77 98 54 50 80 84 107 139 19 39 38 85 41 102 6 29 7 29
22 10 11 -15 14 -40 11 -101 -7 -143 -77 -242 -216 -307 -129 -60 -284 -46
-442 40 -91 50 -299 203 -306 225 -4 12 5 30 25 53 16 19 48 66 71 105 22 38
47 70 54 70 17 0 50 -37 74 -85 31 -64 89 -226 97 -272 8 -50 35 -61 35 -14 0
17 11 41 30 62 56 62 94 141 155 317 9 24 30 6 47 -41z m-682 -86 c22 -36 37
-67 35 -69 -2 -3 -35 16 -72 40 -37 25 -81 53 -96 62 -32 20 -30 26 16 42 47
16 72 0 117 -75z m-1650 -320 c0 -368 1 -379 21 -405 l20 -26 237 -1 c209 -1
233 -2 207 -14 -22 -10 -81 -14 -220 -15 -208 0 -246 8 -272 60 -16 32 -19
780 -3 780 6 0 10 -133 10 -379z m172 266 c17 -6 16 -9 -2 -52 -26 -60 -25
-74 0 -47 12 12 25 22 30 22 4 0 16 3 25 6 16 6 16 5 1 -25 -9 -17 -21 -31
-26 -31 -37 0 -60 -18 -60 -46 l0 -26 31 27 c17 14 34 24 36 21 12 -12 -10
-58 -32 -68 -15 -7 -25 -19 -25 -32 l0 -21 18 20 c9 12 25 27 35 34 31 24 22
-36 -11 -68 -15 -16 -26 -33 -24 -40 5 -15 22 -14 22 2 0 8 8 22 19 31 18 16
19 16 24 -11 4 -19 0 -37 -14 -56 -12 -17 -18 -35 -14 -45 5 -14 9 -11 20 14
18 44 33 50 41 17 5 -17 2 -37 -9 -54 -15 -28 -15 -28 29 -68 48 -45 60 -51
44 -22 -10 20 -3 78 11 86 12 8 39 -37 39 -65 0 -14 -5 -31 -12 -38 -14 -14
-11 -17 20 -27 22 -6 23 -5 12 14 -11 21 -4 91 9 91 16 0 53 -71 49 -94 -4
-19 1 -27 21 -37 l26 -13 -27 -4 c-16 -2 -28 -8 -28 -13 0 -20 -41 -49 -67
-48 -17 1 -21 3 -10 6 9 2 17 8 17 13 0 11 -32 1 -41 -13 -4 -5 -13 -7 -20 -5
-10 3 -3 16 23 41 20 21 32 39 27 42 -4 3 -17 -3 -29 -15 -21 -21 -77 -29 -64
-9 5 8 -1 10 -20 7 -40 -8 -41 9 -2 33 20 12 33 25 30 30 -3 5 -12 2 -20 -6
-9 -8 -25 -15 -38 -15 -24 0 -76 21 -76 31 0 11 59 31 75 25 19 -7 20 8 1 23
-10 8 -16 9 -21 1 -10 -17 -68 -11 -95 10 l-25 19 30 11 c16 6 40 9 52 5 26
-6 29 3 10 29 -11 15 -17 16 -35 7 -17 -9 -26 -7 -51 15 -17 14 -31 30 -31 35
0 14 64 11 79 -3 11 -11 13 -10 7 5 -3 10 -6 22 -6 26 0 4 -13 6 -30 3 -26 -4
-31 0 -46 32 -26 53 -15 56 57 18 4 -1 4 9 2 23 -3 15 -12 25 -23 25 -17 0
-40 38 -40 65 0 24 18 26 39 3 21 -22 21 -22 21 -1 0 11 -7 26 -15 33 -16 14
-20 57 -6 79 7 10 12 8 24 -9 9 -13 17 -17 22 -11 3 6 -1 18 -9 27 -9 8 -16
19 -16 23 0 11 12 21 19 17 3 -1 14 -6 23 -9z m68 -27 c13 -9 13 -11 0 -20 -8
-5 -25 -10 -38 -10 -20 0 -21 3 -12 20 12 22 27 25 50 10z m3398 -25 c-3 -3
-9 2 -12 12 -6 14 -5 15 5 6 7 -7 10 -15 7 -18z m32 -59 c0 -12 -5 -7 -19 24
-11 24 -11 24 3 6 9 -11 16 -24 16 -30z m-3245 -47 c4 -19 16 -34 31 -39 24
-10 34 -40 13 -40 -8 0 -9 -13 -5 -41 l7 -41 -31 22 c-18 13 -29 28 -26 36 11
28 -13 13 -34 -21 -12 -19 -24 -35 -26 -35 -2 0 -1 17 2 38 5 34 3 40 -23 58
l-28 19 40 5 c35 4 41 9 50 38 12 40 21 41 30 1z m942 -155 c113 -64 121 -70
107 -84 -7 -7 -31 -7 -75 0 -35 6 -104 14 -152 19 -49 5 -91 12 -94 15 -4 3 3
15 15 26 12 11 19 27 16 35 -5 13 42 42 73 44 6 1 56 -24 110 -55z m2385 26
c56 -37 84 -68 72 -79 -11 -10 -109 -48 -146 -57 -21 -5 -33 0 -54 21 -22 22
-26 33 -21 67 11 82 69 101 149 48z m144 -58 c4 -21 2 -38 -5 -45 -10 -9 -11
-6 -6 16 5 18 2 34 -7 45 -29 33 -32 45 -9 30 12 -7 24 -28 27 -46z m-3298 22
c46 -19 40 -33 -10 -27 -45 6 -82 29 -72 45 6 9 27 5 82 -18z m3742 -4 c0 -5
-5 -10 -11 -10 -5 0 -7 5 -4 10 3 6 8 10 11 10 2 0 4 -4 4 -10z m-3586 -50
c13 -4 -7 -9 -59 -13 -82 -7 -146 1 -152 18 -4 11 179 7 211 -5z m326 11 c0
-5 -7 -11 -14 -14 -10 -4 -13 -1 -9 9 6 15 23 19 23 5z m-776 -48 c-4 -22 -3
-25 5 -13 9 12 11 9 11 -16 0 -44 -23 -61 -40 -29 -10 19 -10 30 0 54 16 38
32 41 24 4z m561 -4 c17 -31 14 -59 -4 -59 -9 0 -51 70 -51 85 0 3 9 5 20 5
12 0 26 -12 35 -31z m124 27 c-2 -2 -25 -15 -50 -29 l-47 -25 -10 23 c-9 20
-8 25 6 28 21 6 107 8 101 3z m-199 -17 c0 -11 -28 -19 -73 -20 -23 -1 -55 -5
-72 -9 l-30 -8 35 0 c19 0 60 3 90 7 30 5 59 6 64 3 17 -10 -20 -20 -94 -27
-73 -6 -76 -6 -107 23 -18 16 -33 31 -33 33 0 2 50 4 110 5 61 0 110 -3 110
-7z m33 -70 c-10 -10 -161 -25 -152 -15 3 3 34 12 70 19 64 14 98 12 82 -4z
m422 -4 c61 -3 130 -8 155 -11 l45 -5 3 -66 c2 -59 -1 -70 -33 -122 -58 -94
-66 -153 -22 -165 12 -3 46 -6 75 -6 28 0 52 -3 52 -7 0 -5 -24 -19 -53 -33
-30 -14 -81 -53 -119 -91 -61 -61 -68 -65 -73 -46 -9 33 -27 70 -44 90 -10 13
-14 37 -13 77 1 32 -2 61 -7 65 -12 7 -31 -26 -31 -54 0 -10 -5 -21 -12 -23
-8 -3 -8 -12 3 -36 8 -18 17 -32 21 -32 5 0 8 -8 8 -18 0 -10 4 -22 8 -28 16
-17 55 -125 48 -132 -4 -3 -19 9 -33 27 -49 62 -174 90 -262 60 -29 -10 -35
-9 -54 10 -12 12 -23 34 -25 49 -1 15 -5 53 -8 85 -4 39 -1 71 10 104 9 26 16
79 16 123 0 82 16 120 50 120 10 0 22 5 26 11 4 8 26 9 65 5 47 -4 59 -3 59 8
0 10 -18 17 -57 22 l-58 8 40 12 c22 7 56 11 75 9 19 -2 85 -7 145 -10z m-433
-31 c-15 -10 -30 -13 -45 -8 -20 7 -19 9 13 15 55 10 56 10 32 -7z m3528 -22
c13 -9 36 -26 50 -39 26 -24 45 -29 54 -14 8 13 82 -24 136 -67 126 -101 189
-203 211 -338 16 -99 12 -268 -7 -313 -19 -45 -18 -54 5 -41 29 15 31 13 31
-20 0 -56 -120 -164 -240 -215 -25 -10 -52 -25 -60 -32 -9 -7 -31 -13 -50 -14
-19 -1 -45 -6 -57 -11 -12 -6 -29 -8 -38 -5 -13 6 -13 9 5 27 11 11 24 20 29
20 5 0 15 10 24 23 15 23 14 23 -19 24 -19 1 -37 -3 -40 -8 -3 -5 -15 -9 -27
-8 -20 1 -19 2 6 12 31 12 33 19 12 37 -12 10 -19 10 -27 2 -19 -19 -114 -14
-158 8 -22 11 -46 20 -55 20 -28 0 -16 -28 23 -51 45 -27 65 -47 92 -91 28
-46 25 -72 -11 -102 -34 -29 -30 -45 20 -71 25 -13 71 -84 71 -109 0 -7 7 -27
15 -44 20 -39 25 -317 8 -405 -20 -102 -78 -202 -178 -306 -93 -97 -179 -171
-198 -171 -6 0 -1 10 10 23 11 12 28 34 38 50 l18 28 -29 -11 c-16 -6 -42 -22
-59 -34 -34 -26 -79 -50 -113 -61 -22 -6 -23 -5 -13 14 7 12 18 21 26 21 8 0
15 4 15 9 0 5 9 13 21 16 14 5 18 10 11 17 -7 7 -23 4 -48 -7 -88 -39 -121
-48 -129 -35 -3 4 2 14 11 21 21 18 125 59 148 59 24 0 82 17 119 36 16 8 35
14 43 14 8 0 14 5 14 10 0 6 9 10 20 10 11 0 20 7 20 16 0 17 -46 15 -129 -6
-25 -6 -48 -7 -55 -2 -6 5 -24 12 -39 16 -24 6 -37 0 -73 -29 -25 -20 -61 -41
-82 -47 -20 -6 -50 -19 -65 -30 -36 -26 -90 -27 -117 -3 -23 21 -11 47 13 27
7 -6 26 -9 42 -7 17 2 34 4 40 4 5 1 5 5 -1 11 -6 6 -21 6 -41 1 -23 -7 -33
-6 -36 3 -3 7 -24 16 -46 20 -45 7 -52 23 -21 46 11 8 20 18 20 23 0 5 -7 4
-15 -3 -15 -12 -35 -6 -35 12 0 5 7 8 15 4 8 -3 15 -1 15 5 0 22 -35 20 -100
-6 -38 -15 -71 -34 -74 -42 -7 -18 22 -29 37 -14 6 6 20 11 32 10 19 0 19 -1
-2 -11 -13 -6 -23 -15 -23 -20 0 -15 43 -47 62 -48 12 0 15 -5 11 -16 -4 -11
0 -15 18 -13 13 1 33 1 44 0 17 -1 18 -3 5 -11 -20 -13 -88 -12 -149 2 -53 12
-73 6 -53 -14 19 -19 14 -28 -12 -28 -14 0 -28 -5 -31 -10 -4 -6 -10 -8 -14
-5 -11 6 -65 -21 -81 -40 -17 -20 -96 -44 -165 -50 l-60 -5 25 20 c14 12 39
27 55 34 46 21 133 104 155 147 41 80 17 91 -50 23 -52 -54 -126 -104 -152
-104 -30 0 -83 -31 -69 -40 9 -5 5 -9 -12 -12 -20 -4 -23 -1 -19 15 4 16 1 18
-17 12 -25 -8 -61 2 -61 17 0 7 17 9 45 6 49 -6 59 7 29 36 -18 18 -25 19 -77
7 -21 -5 -39 -5 -43 0 -3 5 -16 9 -30 9 -13 0 -24 5 -24 10 0 6 5 10 10 10 6
0 10 5 10 10 0 6 -10 10 -23 10 -38 0 -114 44 -184 105 -73 65 -77 83 -7 33
26 -18 64 -45 85 -60 20 -14 40 -23 44 -20 4 4 13 -1 20 -12 8 -10 18 -15 24
-11 23 14 9 34 -41 59 -95 47 -248 185 -248 224 0 15 -5 22 -12 19 -21 -6 -16
-146 6 -195 10 -22 16 -48 14 -58 -3 -18 -16 3 -53 89 -17 39 -52 53 -42 17 7
-26 -85 51 -146 123 -78 92 -175 289 -164 334 4 17 5 16 12 -2 69 -183 93
-227 181 -332 84 -100 104 -106 104 -29 0 30 -4 57 -9 60 -4 3 -11 21 -14 40
-14 90 -109 237 -208 324 -54 48 -79 49 -79 5 0 -26 -2 -24 -20 15 -10 23 -26
42 -35 42 -18 0 -20 -32 -3 -60 9 -15 10 -22 1 -31 -15 -15 -36 -1 -30 20 3
14 -1 16 -25 13 -32 -5 -33 -20 -2 -36 10 -6 21 -13 24 -16 3 -3 14 -10 25
-16 20 -11 31 -30 80 -139 57 -126 62 -150 38 -164 -16 -9 -12 -16 32 -59 59
-58 51 -48 146 -187 40 -60 84 -120 97 -133 13 -13 21 -26 19 -28 -4 -4 -96
29 -129 47 -10 5 -27 9 -37 9 -11 0 -23 5 -26 10 -3 6 -21 10 -40 10 -39 0
-156 59 -253 129 -64 45 -161 148 -242 256 -47 62 -147 165 -161 165 -15 0 3
-28 60 -93 28 -32 51 -60 51 -63 0 -9 -17 -3 -36 14 -10 10 -30 25 -44 35 -14
9 -65 57 -115 105 -49 49 -112 106 -140 127 -58 45 -120 108 -129 131 -3 9
-12 14 -20 11 -7 -3 -26 6 -41 19 -16 14 -35 22 -43 19 -7 -3 -19 1 -27 8 -7
7 -26 25 -43 39 -35 29 -81 99 -85 130 -2 12 -9 24 -16 26 -16 5 -41 -17 -41
-37 0 -10 -11 -28 -25 -41 -21 -20 -25 -21 -31 -7 -7 18 -4 24 55 100 44 58
61 69 61 41 0 -58 81 -114 164 -114 30 0 60 -6 72 -15 24 -18 67 -20 62 -2 -8
26 -114 69 -172 69 -57 1 -94 17 -82 36 4 7 16 6 36 -6 23 -13 34 -14 47 -6
29 18 83 4 141 -34 80 -52 136 -146 62 -104 -23 13 -32 14 -41 5 -17 -17 84
-112 176 -166 39 -22 86 -53 105 -67 29 -22 210 -136 278 -175 15 -9 149 -102
188 -130 28 -20 27 8 -1 63 -36 71 -201 239 -265 269 -44 21 -121 73 -107 73
3 0 29 -9 57 -20 28 -11 54 -20 57 -20 20 0 -308 291 -381 338 -39 25 -89 57
-111 72 -82 56 -134 51 -207 -20 -45 -43 -49 -45 -43 -21 10 39 43 70 84 77
20 4 41 10 46 14 6 4 33 11 62 15 53 7 92 -6 228 -77 22 -12 60 -32 85 -44 25
-13 53 -24 62 -24 9 0 19 -4 23 -9 9 -15 80 -6 83 11 3 14 -93 97 -180 156
-48 33 -107 47 -78 18 8 -8 53 -39 100 -70 99 -65 110 -73 110 -86 0 -21 -31
-7 -150 72 -157 102 -165 112 -102 122 120 19 127 19 157 -6 26 -21 69 -49
127 -83 88 -51 181 -111 274 -176 l111 -77 194 5 c190 5 339 -8 339 -28 0 -5
6 -9 13 -9 7 0 22 -8 33 -18 10 -10 29 -25 42 -34 13 -9 49 -40 80 -70 31 -29
72 -63 91 -75 34 -21 69 -71 118 -173 20 -41 27 -71 27 -120 1 -58 3 -65 21
-65 14 0 21 8 23 25 2 13 11 30 20 36 17 13 17 15 -16 103 -4 11 1 12 22 7 31
-8 46 15 26 40 -14 16 -4 34 23 38 8 1 22 8 31 15 10 8 26 11 43 6 16 -3 43
-9 61 -12 34 -5 89 -52 125 -106 10 -15 24 -27 32 -27 17 0 20 26 5 35 -16 10
-12 25 7 25 9 0 47 27 85 61 l68 61 -4 -102 c-3 -56 -9 -107 -14 -113 -5 -7
-12 -23 -15 -37 -4 -14 -26 -47 -49 -74 -63 -74 -102 -187 -65 -194 12 -2 17
3 17 17 0 12 4 21 8 21 12 0 32 46 32 72 0 34 29 58 69 58 20 0 46 7 58 15 11
8 38 14 59 12 48 -3 61 27 19 43 -25 9 -25 11 -10 39 8 17 15 38 15 49 0 10 4
22 9 28 18 19 50 84 42 84 -20 0 -68 -61 -105 -134 -21 -42 -41 -74 -44 -71
-9 9 30 96 63 139 18 24 38 53 44 64 12 22 132 124 180 153 41 25 163 71 194
74 15 1 30 5 34 9 3 3 19 6 35 6 31 0 38 20 14 39 -11 9 -20 10 -36 1 -22 -12
-34 -15 -105 -30 -22 -5 -62 -18 -88 -29 -51 -22 -70 -21 -60 4 9 26 -9 16
-44 -21 -28 -31 -35 -34 -48 -24 -13 11 -19 9 -35 -10 l-20 -23 -19 22 c-21
24 -18 39 18 84 8 9 11 17 6 17 -4 0 -16 -11 -27 -25 -11 -14 -23 -25 -28 -25
-16 0 -17 35 -1 54 12 14 13 20 4 23 -15 5 -17 33 -3 33 6 0 10 6 10 14 0 20
26 40 35 26 10 -16 25 -2 25 25 0 13 6 25 13 28 6 2 9 8 5 12 -5 5 -17 0 -27
-9 -11 -10 -24 -15 -29 -12 -17 10 -81 -15 -100 -39 -23 -29 -32 -31 -32 -10
0 14 65 61 133 94 19 11 27 22 27 42 0 34 37 65 94 79 22 6 48 14 57 19 8 5
50 12 92 16 50 5 81 13 89 23 10 12 10 16 1 19 -7 3 -13 13 -13 23 0 19 19 30
51 30 10 0 19 4 19 9 0 5 9 11 20 14 24 6 26 22 5 31 -9 3 -18 -1 -21 -8 -4
-11 -12 -12 -35 -4 -23 8 -35 7 -54 -6 -33 -22 -32 -3 2 28 15 14 23 29 19 33
-4 4 -16 -2 -26 -14 -34 -42 -58 -23 -40 32 6 19 15 35 18 35 10 0 32 52 26
61 -9 15 -55 -14 -71 -45 -33 -65 -127 -186 -144 -186 -10 0 -40 10 -67 22
-42 19 -53 30 -71 70 -12 27 -21 52 -21 57 0 5 -6 11 -12 14 -10 3 -10 13 0
48 20 65 26 119 13 119 -6 0 -11 -9 -11 -20 0 -11 -7 -20 -15 -20 -10 0 -15
-10 -15 -32 0 -18 -4 -39 -9 -47 -13 -20 -35 52 -25 81 4 13 7 27 6 32 -2 4 4
18 12 30 13 20 12 22 -5 22 -10 -1 -18 4 -18 9 0 6 16 9 37 7 21 -2 50 1 65 7
25 10 27 15 27 63 0 29 -6 81 -14 116 -13 62 -12 64 15 106 33 53 49 65 49 36
0 -28 24 -21 28 9 2 12 -1 28 -7 35 -18 22 10 36 75 39 l58 2 11 -50 c8 -38
15 -49 28 -47 26 4 31 -38 18 -182 -17 -194 -22 -229 -36 -250 -17 -23 -9 -46
17 -46 17 0 20 5 16 31 -3 20 0 33 9 36 7 3 13 17 13 32 0 15 4 31 9 37 23 24
38 259 22 357 -4 26 -6 47 -3 47 2 0 17 -9 33 -21 16 -11 33 -17 39 -14 13 8
13 52 0 60 -17 11 -10 39 13 55 13 10 49 17 92 19 38 1 72 5 75 7 3 3 52 5
110 3 74 -1 112 -6 130 -17z m-2740 -92 c22 -12 60 -71 60 -93 0 -9 -10 -28
-22 -42 -19 -21 -37 -27 -111 -37 -111 -15 -122 -7 -88 57 55 104 109 143 161
115z m-795 -93 c-8 -20 -18 -37 -21 -37 -8 0 1 47 17 85 11 26 13 27 16 10 2
-11 -3 -37 -12 -58z m-95 59 c0 -3 -4 -8 -10 -11 -5 -3 -10 -1 -10 4 0 6 5 11
10 11 6 0 10 -2 10 -4z m-14 -53 c-23 -96 -27 -132 -25 -258 1 -77 6 -145 11
-151 11 -14 -148 -176 -196 -201 -65 -32 -208 -147 -281 -225 -41 -44 -75 -84
-75 -89 0 -5 -7 -9 -15 -9 -8 0 -15 6 -15 13 0 21 54 99 96 138 50 47 196 154
270 199 61 37 124 92 124 109 0 6 -6 8 -14 5 -8 -3 -19 3 -25 15 -16 28 -14
185 2 224 8 18 17 49 21 69 7 38 81 158 97 158 5 0 9 7 9 15 0 8 5 15 11 15 7
0 9 -10 5 -27z m2737 -11 c10 -9 17 -29 17 -49 0 -19 6 -41 14 -48 18 -19 31
-104 17 -118 -13 -13 -140 35 -182 70 -53 45 -32 119 43 156 35 17 62 14 91
-11z m-2658 -92 c-8 -13 -24 -140 -26 -210 -2 -76 -6 -90 -25 -90 -17 0 -17
-3 -3 118 11 107 37 205 50 196 5 -3 7 -9 4 -14z m4057 -58 c38 -85 56 -222
38 -305 -18 -88 -33 -71 -25 31 7 94 -9 200 -46 300 -26 73 -3 55 33 -26z
m-3114 -36 c58 -41 103 -68 182 -108 l65 -33 11 -75 c9 -68 29 -120 45 -120 9
0 -2 -49 -12 -56 -12 -7 -59 26 -59 42 0 8 -4 14 -10 14 -23 0 -8 -39 20 -52
27 -12 29 -16 24 -48 -4 -19 -10 -39 -15 -44 -5 -6 -9 -17 -9 -26 0 -21 -23
-70 -33 -70 -4 0 -19 7 -32 16 -23 15 -25 15 -32 -2 -5 -13 4 -26 31 -49 31
-26 37 -37 34 -63 l-3 -32 -40 38 c-22 21 -56 49 -75 62 -19 14 -39 28 -45 33
-45 36 -203 140 -230 151 -23 10 -40 27 -52 52 -21 45 -47 59 -38 21 5 -17 2
-26 -9 -30 -8 -3 -18 -2 -21 3 -4 6 -17 10 -29 10 -17 0 -28 10 -40 34 -23 49
-20 77 15 143 32 58 72 99 183 185 53 40 66 45 96 41 19 -3 55 -20 78 -37z
m435 -20 c45 -19 68 -48 69 -87 1 -27 -7 -40 -44 -73 -24 -23 -64 -54 -87 -70
-50 -35 -57 -30 -67 52 -10 82 1 143 31 170 30 25 53 27 98 8z m-1746 -204
c-13 -194 -32 -215 -28 -33 1 68 4 128 6 135 18 50 26 68 30 65 2 -3 -1 -78
-8 -167z m2973 132 c6 -14 9 -51 8 -82 -2 -68 14 -132 48 -189 13 -23 24 -45
24 -50 0 -12 -62 -14 -77 -2 -21 18 -16 41 7 34 25 -8 25 -6 -4 74 -37 106
-43 314 -6 215z m-493 1 c34 -24 37 -66 13 -142 -30 -93 -48 -125 -68 -121 -9
2 -41 38 -69 81 -68 101 -70 149 -8 185 29 16 107 15 132 -3z m333 -14 c0 -17
5 -33 10 -36 15 -9 12 -35 -4 -29 -15 6 -30 -22 -20 -38 4 -6 8 -31 10 -57 3
-40 -2 -54 -39 -108 -39 -58 -45 -63 -80 -63 -20 0 -45 -4 -55 -9 -93 -45 -86
-44 -126 -22 -20 12 -47 21 -61 21 -19 0 -108 -56 -125 -80 -3 -4 -30 -19 -60
-34 -30 -15 -64 -38 -76 -51 -11 -13 -52 -40 -90 -59 l-69 -34 -104 6 -104 7
-12 35 c-11 31 -16 35 -45 32 -22 -2 -37 3 -45 15 -11 15 -15 15 -29 4 -10 -8
-16 -9 -16 -3 0 6 5 14 11 18 8 4 7 9 -2 15 -11 7 -8 15 14 34 39 35 37 58 -3
33 -26 -16 -32 -7 -18 24 14 28 57 51 81 43 8 -4 18 -1 22 5 9 15 -13 40 -36
40 -16 0 -17 3 -7 28 7 15 20 39 31 55 16 23 16 27 3 27 -20 0 -56 -35 -56
-55 0 -8 -4 -15 -10 -15 -5 0 -10 -5 -10 -11 0 -6 -13 -30 -30 -54 -16 -24
-30 -52 -30 -62 0 -11 -4 -23 -9 -29 -5 -5 -12 -18 -15 -29 -3 -11 -3 3 0 30
9 84 57 181 104 212 19 12 43 28 52 37 48 43 66 48 105 35 26 -9 88 -13 193
-12 88 1 167 -2 182 -8 15 -6 38 -28 52 -49 39 -59 112 -130 133 -130 11 0 29
10 41 23 26 28 72 125 72 154 0 34 53 88 102 103 24 8 68 27 98 42 69 34 70
34 70 -1z m-2095 -81 c3 -5 14 -10 23 -10 10 0 32 -13 50 -30 37 -34 50 -37
58 -15 11 27 26 16 23 -17 -2 -37 7 -84 23 -112 8 -15 7 -22 -6 -31 -15 -12
-125 -29 -133 -22 -2 2 3 22 11 44 17 47 7 75 -18 54 -9 -8 -16 -21 -16 -30 0
-28 -24 -70 -42 -74 -26 -7 -29 3 -9 32 30 44 63 120 56 131 -11 17 -23 11
-29 -16 -9 -33 -62 -129 -82 -145 -30 -25 -25 2 15 82 22 46 40 84 38 85 -7 7
-26 -17 -67 -86 -59 -98 -85 -128 -100 -114 -8 8 -6 17 8 35 40 52 103 161
100 171 -3 9 -98 -95 -142 -157 -8 -11 -17 -17 -21 -13 -4 4 14 33 40 65 25
32 57 72 70 88 32 40 31 50 -2 29 -27 -16 -188 -186 -217 -229 -22 -30 -31
-10 -11 22 33 51 139 170 168 187 15 10 27 21 27 26 0 14 -33 -1 -49 -22 -12
-18 -14 -18 -32 -2 -18 16 -21 16 -61 -1 -91 -40 -156 -95 -208 -176 -54 -84
-70 -101 -70 -72 0 57 163 233 261 282 41 20 70 29 85 25 14 -4 24 -2 24 4 0
18 224 29 235 12z m2207 -177 c19 -17 24 -33 9 -33 -12 0 -41 29 -41 41 0 14
11 11 32 -8z m-2697 -115 c0 -40 4 -90 9 -110 10 -48 -7 -51 -30 -6 -19 37
-16 147 5 172 7 9 14 16 15 16 1 0 1 -33 1 -72z m4269 -218 c0 -149 0 -153
-55 -324 -22 -69 -76 -139 -127 -165 -21 -10 -66 -26 -102 -35 -89 -24 -146
-43 -182 -62 -20 -10 -34 -12 -40 -6 -18 18 1 30 90 57 275 84 290 99 365 365
18 63 21 98 19 218 -1 79 -7 152 -12 163 -6 11 -8 25 -4 31 5 7 16 -11 27 -43
17 -44 20 -80 21 -199z m-1623 197 c28 -7 66 -29 95 -55 l49 -42 -44 0 c-37 0
-48 -5 -75 -35 -34 -37 -56 -33 -56 9 -1 24 -92 86 -127 86 -12 0 -25 5 -28
10 -3 6 -22 10 -41 10 -36 0 -47 15 -16 23 36 10 199 6 243 -6z m-373 -16 c55
-29 217 -91 238 -91 29 0 60 -30 91 -89 l22 -41 -36 0 c-23 0 -48 -9 -69 -25
-37 -28 -54 -32 -54 -11 0 8 -6 21 -13 28 -7 7 -16 21 -20 30 -8 22 -79 67
-117 75 -17 3 -33 10 -36 14 -3 5 -16 9 -28 9 -13 0 -29 6 -35 14 -7 8 -30 17
-52 21 -47 8 -49 23 -6 52 34 23 85 29 115 14z m667 -2 c14 -22 54 -29 89 -14
67 28 93 12 28 -17 -20 -9 -52 -19 -70 -23 -18 -4 -50 -24 -73 -48 -34 -33
-40 -43 -31 -58 9 -15 4 -21 -41 -42 -29 -13 -61 -34 -71 -46 -25 -28 -35 -27
-76 8 l-35 29 31 38 c21 27 43 42 71 49 27 7 38 15 35 24 -3 8 1 12 9 9 8 -3
18 5 24 16 6 12 22 22 38 24 22 3 29 10 34 33 5 29 26 39 38 18z m265 1 c0 -5
-7 -10 -16 -10 -8 0 -12 5 -9 10 3 6 10 10 16 10 5 0 9 -4 9 -10z m-3410 -48
c0 -15 -5 -33 -11 -39 -9 -9 -8 -18 5 -38 24 -36 14 -42 -24 -15 -17 12 -34
19 -38 15 -4 -4 -1 -10 6 -12 6 -3 12 -11 12 -19 0 -10 -11 -13 -40 -10 -22 2
-43 6 -47 10 -7 6 116 136 129 136 5 0 8 -13 8 -28z m4391 -109 c-3 -127 -19
-278 -31 -302 -13 -28 -29 -65 -35 -87 -3 -11 -18 -27 -33 -35 -15 -7 -38 -21
-52 -30 -14 -10 -55 -27 -90 -38 -36 -12 -73 -26 -82 -31 -10 -6 -23 -10 -30
-10 -8 0 -5 5 5 11 18 10 24 49 7 49 -5 0 -14 -9 -20 -20 -13 -24 -30 -26 -30
-5 0 8 6 15 13 15 12 0 44 86 35 96 -3 2 -13 2 -22 -2 -10 -4 -16 -18 -16 -40
0 -37 -15 -46 -25 -15 -4 13 -12 18 -22 14 -13 -5 -15 -2 -8 18 4 13 8 38 9
54 3 42 14 78 46 143 27 55 104 142 115 130 7 -7 -57 -107 -70 -107 -13 -1
-36 -51 -29 -62 8 -14 24 -10 24 5 0 8 7 16 15 20 8 3 15 12 15 21 0 8 5 15
10 15 6 0 10 7 10 15 0 8 5 15 10 15 6 0 10 7 10 15 0 8 5 15 10 15 6 0 10 8
10 18 0 18 41 62 58 62 5 0 15 7 22 15 7 8 19 15 26 15 21 0 17 -27 -6 -33
-21 -5 -48 -53 -36 -64 11 -11 156 149 156 173 0 13 22 35 28 29 3 -3 4 -40 3
-82z m-3991 63 c0 -3 -4 -8 -10 -11 -5 -3 -10 -1 -10 4 0 6 5 11 10 11 6 0 10
-2 10 -4z m1977 -22 c21 -9 46 -20 55 -25 10 -5 25 -9 33 -9 8 0 23 -4 33 -9
84 -42 101 -55 134 -103 38 -53 94 -107 113 -108 6 0 28 -14 49 -30 44 -33 56
-37 56 -16 0 15 76 86 92 86 16 0 8 -29 -10 -34 -10 -4 -28 -24 -41 -46 -16
-28 -26 -37 -38 -33 -13 5 -15 2 -8 -18 4 -13 10 -42 12 -65 4 -37 1 -43 -32
-72 -20 -18 -41 -30 -46 -27 -12 8 -2 25 15 25 7 0 22 13 34 29 16 22 20 38
16 61 -10 45 -37 56 -68 26 -14 -12 -53 -37 -85 -55 -53 -28 -63 -30 -83 -19
-12 7 -27 19 -33 27 -9 11 -15 8 -28 -13 -10 -14 -24 -26 -32 -26 -12 0 -10 5
5 20 35 35 26 43 -40 37 -55 -6 -63 -4 -104 24 -28 18 -53 47 -68 75 -12 25
-30 50 -39 55 -45 24 -114 40 -145 34 -47 -8 -54 15 -20 60 39 51 88 63 162
39 33 -10 70 -24 84 -31 14 -7 30 -13 36 -13 6 0 17 -7 24 -15 19 -23 40 -18
40 9 0 18 6 25 23 28 14 2 22 10 22 22 0 30 -24 31 -35 1 -9 -23 -15 -27 -38
-22 -15 3 -51 19 -80 35 -49 27 -52 31 -38 45 9 9 16 21 16 27 0 19 -34 6 -45
-17 -7 -17 -17 -22 -42 -21 -42 2 -43 20 -3 60 27 27 35 30 70 24 22 -3 57
-13 77 -22z m-690 -10 c-3 -3 -12 -4 -19 -1 -8 3 -5 6 6 6 11 1 17 -2 13 -5z
m93 -54 c0 -5 -12 -10 -27 -10 -22 0 -25 2 -13 10 20 13 40 13 40 0z m-1889
-40 c28 -15 24 -28 -23 -69 -54 -49 -34 -62 21 -14 47 40 107 58 184 55 52 -2
102 -30 168 -94 52 -50 81 -70 158 -108 39 -19 71 -38 71 -42 0 -4 -20 -30
-44 -57 -24 -27 -52 -63 -62 -81 -36 -61 -214 -198 -334 -258 -74 -36 -77 -37
-190 -37 -67 0 -130 6 -152 13 -33 12 -39 19 -54 70 -9 31 -20 84 -24 117 -6
50 -4 65 11 91 11 17 19 48 19 67 0 45 29 99 83 154 39 41 40 44 22 57 -18 13
-17 15 21 35 56 30 98 67 90 80 -4 6 -27 11 -52 11 -24 0 -44 5 -44 10 0 13
106 13 131 0z m2983 -45 c40 -17 59 -46 35 -54 -8 -2 -28 -20 -46 -39 -30 -32
-34 -34 -60 -23 -16 6 -42 22 -58 36 l-30 24 21 21 c17 17 41 29 100 50 1 0
18 -7 38 -15z m-2514 -39 c0 -8 7 -16 15 -20 8 -3 15 -12 15 -21 0 -8 5 -15
10 -15 6 0 10 -7 10 -15 0 -8 -7 -15 -15 -15 -8 0 -15 7 -15 16 0 9 -6 14 -13
11 -7 -2 -23 4 -35 14 -20 16 -21 21 -10 38 15 24 38 28 38 7z m3630 -15 c0
-5 -7 -14 -15 -21 -12 -10 -15 -10 -15 2 0 8 3 18 7 21 9 10 23 9 23 -2z
m-3520 -76 c0 -21 -28 -31 -43 -16 -9 9 -8 14 3 21 22 14 40 12 40 -5z m2475
-76 c-14 -22 -30 -37 -36 -33 -7 4 -3 15 10 28 12 12 21 27 21 33 0 7 5 24 12
40 l12 28 4 -28 c2 -19 -5 -42 -23 -68z m97 56 c0 -5 -5 -11 -11 -13 -6 -2
-11 4 -11 13 0 9 5 15 11 13 6 -2 11 -8 11 -13z m-2453 -77 c14 -16 20 -28 13
-28 -16 0 -42 29 -42 47 0 9 1 14 3 12 1 -2 13 -16 26 -31z m-14 -94 c22 -4
48 -14 58 -23 18 -15 18 -16 -5 -22 -21 -6 -20 -7 8 -8 31 -1 54 -16 54 -36 0
-12 -87 -45 -116 -45 -17 0 -104 -82 -104 -99 0 -17 17 -14 69 13 92 48 133
66 147 66 8 0 39 -25 70 -55 43 -42 54 -59 49 -75 -7 -21 5 -25 49 -21 15 1
16 -2 7 -13 -14 -16 -126 -46 -175 -46 -19 0 -47 -5 -63 -12 -15 -6 -34 -10
-40 -9 -23 3 -53 -19 -53 -39 0 -11 5 -20 10 -20 6 0 10 4 10 8 0 5 46 12 102
16 56 3 106 10 112 15 6 4 30 11 54 15 54 8 77 -10 67 -53 -8 -36 -40 -66 -85
-79 -70 -20 -171 -59 -183 -71 -15 -15 -37 -14 -37 2 0 21 -70 36 -124 26 -56
-10 -70 -4 -42 17 16 11 17 17 7 27 -10 10 -15 8 -26 -7 -8 -10 -18 -15 -24
-12 -5 4 -13 1 -16 -5 -4 -6 -17 -14 -29 -18 -17 -7 -25 -3 -38 18 -10 14 -18
31 -18 36 0 6 4 4 9 -3 6 -10 15 -6 39 15 18 15 32 31 32 35 0 14 -27 9 -40
-7 -19 -23 -29 -18 -28 15 1 17 5 30 10 30 4 0 8 6 8 13 0 7 9 19 20 27 11 8
20 21 20 28 0 8 -18 -4 -40 -27 -40 -41 -50 -61 -29 -61 6 0 2 -8 -9 -17 -24
-21 -62 -87 -62 -108 0 -8 -12 -25 -26 -38 -14 -12 -32 -34 -40 -49 -14 -26
-105 -88 -131 -88 -6 0 -13 8 -15 18 -3 11 -15 -4 -36 -45 -35 -68 -38 -83
-20 -83 6 0 22 -10 35 -22 19 -18 34 -22 75 -20 54 2 87 18 126 59 32 35 27
48 -8 23 -37 -26 -125 -34 -125 -11 0 8 16 23 35 34 19 10 56 39 82 63 26 24
57 45 70 46 13 1 61 3 108 4 102 3 171 9 225 19 51 10 201 59 247 81 33 15 36
15 77 -6 46 -23 82 -83 62 -103 -53 -53 -318 -173 -338 -153 -3 3 3 6 15 6 12
0 22 4 22 9 0 5 10 12 23 16 85 24 212 103 194 122 -4 3 -13 0 -20 -9 -21 -27
-236 -123 -258 -116 -13 4 123 78 143 78 5 0 18 9 30 20 26 24 7 27 -27 4 -16
-10 -34 -14 -50 -10 -17 4 -25 2 -25 -6 0 -9 -17 -14 -50 -15 -28 0 -56 -6
-63 -12 -7 -5 -32 -13 -55 -17 -23 -4 -45 -11 -48 -15 -3 -5 -16 -9 -30 -9
-26 0 -104 -44 -117 -66 -4 -8 -15 -14 -22 -14 -21 0 -18 -17 5 -30 21 -11
291 5 319 19 9 5 34 12 56 15 51 9 197 79 295 139 41 26 78 47 82 47 45 0 -85
-89 -225 -155 -117 -55 -215 -82 -347 -96 -106 -12 -260 -5 -260 11 0 14 138
150 152 150 7 0 34 8 61 17 32 12 47 23 47 35 0 22 -28 23 -77 3 -19 -8 -42
-15 -51 -15 -8 0 -46 -31 -83 -69 -37 -38 -85 -79 -108 -90 -56 -29 -134 -28
-200 2 -80 38 -84 43 -50 77 16 15 29 38 29 50 0 22 0 22 -27 5 -75 -49 -67
-48 -98 -15 -16 17 -23 30 -17 30 7 0 12 7 12 15 0 18 -12 19 -27 4 -8 -8 -26
8 -67 57 -31 37 -56 74 -56 81 0 7 20 26 44 41 52 33 92 79 107 120 l10 29
127 7 c184 10 198 15 295 116 45 47 96 103 112 125 17 22 59 68 94 103 53 52
68 62 90 58 14 -3 44 -8 66 -12z m335 -177 c0 -26 256 -390 348 -494 16 -18
34 -33 41 -33 6 0 23 -7 36 -16 13 -8 33 -14 45 -12 20 3 19 5 -10 36 -16 18
-30 37 -30 42 0 8 -74 118 -147 221 -13 18 -23 37 -23 43 1 12 66 -56 90 -93
12 -19 123 -115 205 -180 29 -22 146 -72 180 -77 38 -5 68 -15 107 -35 10 -5
23 -9 29 -9 6 0 36 -7 67 -16 55 -16 76 -32 119 -87 21 -28 25 -28 135 -32 62
-2 124 -6 138 -9 62 -14 140 -25 193 -25 31 -1 66 -6 76 -13 15 -9 28 -9 60 2
23 7 44 10 48 6 10 -10 -17 -26 -44 -26 -13 0 -23 -4 -23 -10 0 -5 5 -10 10
-10 6 0 10 -9 10 -19 0 -32 21 -36 44 -10 12 13 37 32 56 42 20 10 58 36 85
57 83 66 88 68 148 75 l58 7 -7 -26 c-8 -34 5 -33 52 5 46 37 116 69 150 69
23 0 24 -3 24 -60 0 -35 4 -60 10 -60 6 0 21 17 33 37 18 31 22 34 25 18 2
-11 8 -24 13 -30 5 -5 9 -12 9 -16 0 -10 -58 -29 -86 -29 -14 0 -56 -28 -106
-70 -69 -59 -133 -100 -218 -140 -24 -12 -111 -37 -170 -50 -30 -7 -63 -16
-72 -21 -53 -27 -49 4 5 37 23 15 55 36 70 47 16 10 36 20 44 21 8 1 30 14 48
29 19 15 46 32 60 39 26 11 65 73 65 100 0 7 -11 1 -24 -14 -13 -15 -55 -44
-94 -65 -38 -21 -84 -50 -102 -65 -18 -15 -46 -30 -62 -33 -16 -4 -41 -13 -56
-21 -15 -8 -35 -14 -44 -14 -10 0 -40 -20 -68 -45 -28 -25 -55 -45 -60 -45 -5
0 -34 -22 -65 -49 -52 -45 -100 -70 -113 -57 -3 3 15 23 39 45 24 21 41 42 37
47 -5 4 -16 0 -25 -8 -10 -9 -32 -23 -50 -32 -27 -13 -38 -14 -70 -3 -35 11
-38 15 -41 52 -2 22 -9 54 -17 72 -8 17 -15 38 -15 47 0 9 -4 24 -9 34 -31 64
-48 89 -74 112 -38 32 -110 80 -119 80 -14 0 -8 -27 9 -41 9 -8 45 -47 80 -88
47 -55 63 -82 63 -104 0 -17 11 -45 26 -64 20 -27 22 -34 10 -39 -23 -9 -68
21 -121 82 -27 31 -54 62 -60 68 -27 30 -64 85 -85 126 -63 124 -149 208 -212
210 -36 0 -23 -17 75 -100 20 -18 37 -36 37 -41 0 -5 27 -41 60 -81 56 -66 69
-88 54 -88 -16 0 -115 94 -139 133 -15 24 -39 50 -54 59 -14 8 -56 34 -93 57
-83 51 -108 53 -108 11 0 -46 72 -116 203 -196 61 -38 125 -76 140 -84 38 -19
18 -25 -30 -10 -133 43 -289 163 -376 290 -17 25 -62 74 -101 110 -82 76 -228
268 -315 414 -64 108 -71 126 -46 126 8 0 15 -6 15 -13z m2101 -444 c12 -15
12 -16 -4 -10 -10 4 -23 7 -28 7 -6 0 -7 5 -4 10 9 15 21 12 36 -7z m-868
-183 c55 -24 72 -40 43 -40 -25 0 -161 68 -182 92 -12 12 -26 38 -32 56 -11
33 -10 33 51 -25 37 -34 87 -69 120 -83z m-1088 -85 c15 -44 41 -108 57 -143
32 -67 31 -87 -2 -57 -50 45 -100 175 -100 259 0 54 12 38 45 -59z m1262 79
c13 -4 20 -10 17 -15 -8 -14 -47 -10 -68 6 -19 15 -19 15 5 15 13 0 34 -3 46
-6z m-1493 -120 c7 -54 40 -125 70 -153 16 -14 40 -21 94 -24 40 -2 75 -7 78
-10 6 -5 -35 -145 -56 -194 -23 -53 -29 -71 -46 -123 -20 -66 -24 -71 -49 -64
-18 5 -21 14 -22 82 0 51 4 84 13 97 16 23 19 91 4 100 -5 3 -10 15 -10 25 0
10 -12 41 -27 67 -53 96 -65 123 -78 172 -9 35 -10 52 -2 60 19 19 24 13 31
-35z m-57 -56 c-2 -13 -4 -5 -4 17 -1 22 1 32 4 23 2 -10 2 -28 0 -40z m2403
-35 c-53 -63 -133 -132 -165 -144 -16 -6 -84 -38 -150 -70 -66 -32 -133 -61
-150 -65 -16 -4 -34 -10 -40 -14 -5 -4 -40 -10 -77 -13 -38 -4 -77 -11 -88
-17 -11 -6 -51 -10 -88 -8 -63 3 -66 4 -42 17 13 8 58 15 100 17 121 5 211 22
245 45 6 4 30 12 53 19 24 6 89 38 144 71 55 32 103 59 106 59 4 1 40 32 81
70 80 76 125 96 71 33z m-2497 -3 c28 -34 57 -91 57 -115 0 -17 -9 -58 -21
-90 -12 -33 -23 -84 -26 -112 -3 -29 -8 -53 -10 -53 -8 0 -171 84 -238 123
-83 48 -225 141 -304 200 l-56 42 55 5 c30 3 164 5 297 5 133 0 243 -2 246 -5z
m1198 -118 c13 -34 5 -38 -20 -11 -26 28 -30 69 -5 48 9 -7 20 -24 25 -37z
m-1021 -49 c0 -20 -16 -8 -23 17 -4 17 -3 19 9 9 8 -6 14 -18 14 -26z m28
-108 c1 -25 -1 -27 -8 -10 -5 11 -8 36 -8 55 0 32 1 33 8 10 4 -14 8 -38 8
-55z m-72 0 c9 -8 20 -30 25 -47 10 -35 12 -118 4 -118 -3 0 -21 6 -40 14 -30
13 -34 19 -30 43 2 15 7 49 10 76 7 52 9 54 31 32z m1399 -75 c-3 -5 -17 -10
-31 -10 -14 0 -22 4 -19 10 3 6 17 10 31 10 14 0 22 -4 19 -10z"/>
<path d="M4652 5973 c-36 -34 -42 -46 -42 -81 0 -32 7 -49 31 -77 27 -31 37
-35 79 -35 148 0 160 207 13 227 -36 5 -44 1 -81 -34z m131 -35 c61 -70 -50
-163 -113 -95 -27 27 -21 83 10 109 26 21 78 14 103 -14z"/>
<path d="M4736 5915 c-13 -20 -22 -23 -45 -19 -27 6 -29 4 -24 -16 8 -29 47
-53 73 -45 28 9 51 46 44 72 -9 32 -30 35 -48 8z"/>
<path d="M6155 4710 c3 -5 8 -10 11 -10 2 0 4 5 4 10 0 6 -5 10 -11 10 -5 0
-7 -4 -4 -10z"/>
<path d="M2970 4490 c0 -5 5 -10 10 -10 6 0 10 5 10 10 0 6 -4 10 -10 10 -5 0
-10 -4 -10 -10z"/>
<path d="M3346 4291 c-4 -7 -5 -15 -2 -18 9 -9 19 4 14 18 -4 11 -6 11 -12 0z"/>
<path d="M2995 4259 c-4 -6 -5 -12 -2 -15 2 -3 7 2 10 11 7 17 1 20 -8 4z"/>
<path d="M3340 4240 c0 -5 5 -10 10 -10 6 0 10 5 10 10 0 6 -4 10 -10 10 -5 0
-10 -4 -10 -10z"/>
<path d="M3367 4213 c-13 -12 -7 -23 13 -23 11 0 20 7 20 15 0 15 -21 21 -33
8z"/>
<path d="M2934 4186 c-6 -17 2 -36 17 -36 12 0 12 37 -1 45 -6 3 -13 -1 -16
-9z"/>
<path d="M6007 4483 c-12 -11 -8 -23 8 -23 8 0 15 7 15 15 0 16 -12 20 -23 8z"/>
<path d="M5925 4279 c-7 -33 5 -56 24 -45 6 4 11 23 11 42 0 44 -26 46 -35 3z"/>
<path d="M6140 4210 c0 -5 7 -10 15 -10 8 0 15 5 15 10 0 6 -7 10 -15 10 -8 0
-15 -4 -15 -10z"/>
<path d="M5927 4183 c-10 -18 -17 -63 -11 -77 11 -28 34 -18 36 14 1 17 2 38
2 47 1 17 -19 30 -27 16z"/>
<path d="M6122 4148 c6 -18 28 -21 28 -4 0 9 -7 16 -16 16 -9 0 -14 -5 -12
-12z"/>
<path d="M6099 4113 c-1 -5 -1 -12 0 -17 1 -5 -4 -13 -11 -17 -7 -5 -14 -14
-14 -21 -3 -26 -17 -58 -24 -58 -9 0 -50 -66 -50 -81 0 -17 32 -5 44 16 6 11
13 22 16 25 11 11 70 134 70 146 0 14 -29 20 -31 7z"/>
<path d="M5582 4083 c-15 -27 -16 -120 -1 -129 25 -15 38 64 20 126 l-7 25
-12 -22z"/>
<path d="M5782 3886 c1 -10 8 -17 13 -17 15 1 12 24 -3 29 -9 3 -13 -2 -10
-12z"/>
<path d="M6487 3825 c-20 -19 -42 -35 -50 -35 -8 0 -22 -9 -32 -20 -16 -18
-17 -20 -1 -20 9 0 26 6 39 12 28 17 97 80 97 90 0 16 -18 7 -53 -27z"/>
<path d="M5724 3819 c-3 -6 -2 -15 2 -19 12 -12 38 5 30 19 -9 14 -23 14 -32
0z"/>
<path d="M6332 3722 c-14 -15 -19 -28 -12 -30 16 -6 62 27 57 41 -6 20 -22 16
-45 -11z"/>
<path d="M6155 3680 c-11 -5 -34 -6 -51 -3 -18 3 -35 0 -38 -6 -4 -6 -22 -11
-39 -11 -18 0 -39 -5 -47 -10 -27 -17 5 -32 68 -32 105 0 182 23 182 53 0 21
-37 25 -75 9z"/>
<path d="M6210 3305 c0 -9 5 -15 11 -13 6 2 11 8 11 13 0 5 -5 11 -11 13 -6 2
-11 -4 -11 -13z"/>
<path d="M5848 3283 c7 -3 16 -2 19 1 4 3 -2 6 -13 5 -11 0 -14 -3 -6 -6z"/>
<path d="M3055 3251 c-3 -5 -1 -12 5 -16 12 -7 30 2 30 16 0 12 -27 12 -35 0z"/>
<path d="M4192 3231 c-20 -12 -2 -40 38 -61 21 -11 49 -34 61 -52 13 -18 28
-37 34 -43 39 -35 114 -170 102 -182 -5 -4 -12 -1 -17 7 -5 8 -13 11 -17 6 -4
-5 -2 -11 5 -13 6 -3 12 -11 12 -20 0 -26 77 -147 122 -189 79 -75 248 -139
248 -94 0 4 13 7 30 6 33 -1 41 13 16 29 -11 7 -22 6 -36 -2 -20 -13 -54 -7
-44 8 3 5 -6 13 -19 18 -36 14 -42 30 -15 40 13 5 46 29 73 54 41 37 48 48 37
59 -10 10 -17 8 -35 -12 -43 -48 -95 -67 -171 -64 -97 5 -107 16 -110 130 -2
59 -9 99 -19 119 -9 17 -17 36 -17 42 0 7 -15 36 -34 65 -48 75 -113 128 -156
128 -12 0 -33 6 -49 14 -15 8 -33 11 -39 7z"/>
<path d="M5596 3209 c-11 -11 -17 -21 -14 -24 2 -3 13 4 23 15 24 26 16 33 -9
9z"/>
<path d="M4230 3108 c0 -7 24 -38 54 -68 29 -30 61 -70 70 -89 14 -25 20 -31
29 -21 9 9 8 14 -5 24 -10 7 -18 16 -18 20 0 4 -5 12 -11 19 -5 7 -27 37 -48
67 -36 52 -71 77 -71 48z"/>
<path d="M3350 3072 c0 -10 20 -32 46 -50 35 -25 44 -37 39 -52 -4 -11 -2 -20
4 -20 6 0 11 5 11 10 0 6 4 10 10 10 17 0 129 -121 201 -217 42 -56 97 -115
141 -150 40 -32 78 -63 83 -69 6 -7 53 -34 106 -62 120 -64 144 -57 67 19 -65
65 -220 236 -231 255 -13 22 -216 174 -357 267 -36 24 -71 51 -79 60 -18 22
-41 22 -41 -1z"/>
<path d="M5710 3041 c0 -6 17 -21 38 -35 44 -28 61 -46 96 -107 39 -69 34 -95
-8 -36 -76 107 -124 160 -137 152 -16 -10 -10 -25 15 -36 24 -11 75 -104 63
-116 -4 -3 -7 -1 -7 5 0 11 -94 112 -104 112 -17 0 -1 -33 33 -68 55 -56 111
-131 111 -150 0 -16 -74 56 -96 93 -7 13 -16 16 -29 11 -17 -6 -15 -10 15 -41
19 -19 31 -37 28 -41 -7 -6 -40 19 -71 54 -21 23 -47 30 -47 12 0 -5 9 -19 19
-29 13 -13 16 -22 9 -29 -16 -16 -1 -42 24 -42 109 -1 246 -133 231 -223 -4
-29 -2 -37 10 -37 23 0 57 53 57 88 0 22 4 29 18 28 13 -1 18 8 20 36 2 27 7
35 18 31 9 -3 14 2 14 15 0 24 -16 38 -23 20 -9 -26 -13 -2 -9 50 4 56 24 68
30 18 3 -19 8 -26 20 -24 14 3 17 14 14 68 -2 36 -8 76 -15 90 -15 32 -67 80
-87 80 -9 0 -20 4 -25 9 -9 9 -45 15 -72 12 -21 -2 -15 -31 12 -63 14 -16 25
-36 25 -43 0 -24 -26 -6 -48 33 -11 20 -36 51 -54 69 -34 33 -88 54 -88 34z
m100 -207 c0 -8 -4 -12 -10 -9 -5 3 -10 13 -10 21 0 8 5 12 10 9 6 -3 10 -13
10 -21z m150 -198 c0 -3 -4 -8 -10 -11 -5 -3 -10 -1 -10 4 0 6 5 11 10 11 6 0
10 -2 10 -4z"/>
<path d="M5313 2848 c-26 -29 -46 -68 -39 -75 7 -8 76 67 76 83 0 20 -14 17
-37 -8z"/>
<path d="M5332 2790 c-24 -32 -27 -40 -12 -40 10 0 44 59 38 66 -3 2 -14 -10
-26 -26z"/>
<path d="M5559 2718 c-16 -18 -29 -42 -29 -53 0 -37 -31 -66 -109 -102 -92
-43 -131 -70 -131 -89 0 -18 27 -18 46 0 8 8 38 21 67 30 75 22 142 68 161
110 9 20 23 51 31 70 31 70 13 87 -36 34z"/>
<path d="M4760 2660 c0 -5 7 -10 15 -10 8 0 15 5 15 10 0 6 -7 10 -15 10 -8 0
-15 -4 -15 -10z"/>
<path d="M5525 2530 c-3 -5 -1 -10 4 -10 6 0 11 5 11 10 0 6 -2 10 -4 10 -3 0
-8 -4 -11 -10z"/>
<path d="M5565 2500 c-3 -5 1 -10 9 -10 9 0 16 5 16 10 0 6 -4 10 -9 10 -6 0
-13 -4 -16 -10z"/>
<path d="M5789 2460 c-9 -9 -21 -19 -26 -21 -6 -2 -14 -15 -18 -29 -7 -23 -7
-23 9 -7 9 9 25 22 34 29 9 7 23 21 31 31 11 14 11 17 0 16 -8 0 -21 -9 -30
-19z"/>
<path d="M4740 2415 c0 -11 7 -15 23 -13 12 2 22 8 22 13 0 6 -10 11 -22 13
-16 2 -23 -2 -23 -13z"/>
<path d="M5955 2340 c-3 -5 1 -10 10 -10 9 0 13 5 10 10 -3 6 -8 10 -10 10 -2
0 -7 -4 -10 -10z"/>
<path d="M3634 4129 c-3 -6 -2 -15 4 -21 13 -13 32 -2 32 18 0 16 -26 19 -36
3z"/>
<path d="M3605 4080 c-8 -14 3 -30 21 -30 8 0 14 9 14 20 0 21 -24 28 -35 10z"/>
<path d="M3578 4033 c7 -3 16 -2 19 1 4 3 -2 6 -13 5 -11 0 -14 -3 -6 -6z"/>
<path d="M3570 3975 c0 -14 37 -31 47 -22 8 9 -5 24 -27 30 -13 3 -20 0 -20
-8z"/>
<path d="M3553 3881 c4 -18 2 -20 -19 -15 -15 4 -24 2 -24 -6 0 -6 6 -10 12
-8 13 5 22 -1 59 -34 16 -15 19 -15 19 -3 0 8 -4 15 -9 15 -6 0 -11 14 -13 32
-2 17 -9 34 -17 36 -10 3 -12 -1 -8 -17z"/>
<path d="M5120 3986 c0 -9 7 -16 16 -16 9 0 14 5 12 12 -6 18 -28 21 -28 4z"/>
<path d="M5085 3941 c-3 -6 -4 -15 -1 -20 8 -13 48 -1 43 13 -5 15 -34 20 -42
7z"/>
<path d="M4975 3799 c-4 -6 -4 -13 -1 -16 8 -8 36 5 36 17 0 13 -27 13 -35 -1z"/>
<path d="M4250 3776 c0 -9 7 -16 16 -16 17 0 14 22 -4 28 -7 2 -12 -3 -12 -12z"/>
<path d="M5040 3770 c0 -5 5 -10 10 -10 6 0 10 5 10 10 0 6 -4 10 -10 10 -5 0
-10 -4 -10 -10z"/>
<path d="M4245 3710 c-3 -5 -17 -10 -31 -10 -19 0 -25 -5 -22 -17 2 -10 12
-19 23 -21 11 -3 24 -10 28 -18 4 -8 14 -14 21 -14 8 0 16 -9 19 -20 6 -24 47
-28 47 -5 0 8 -6 15 -13 15 -8 0 -22 9 -32 20 -10 11 -24 20 -32 20 -7 0 -13
10 -13 21 0 16 3 19 13 12 36 -29 82 -18 57 12 -14 17 -56 20 -65 5z"/>
<path d="M4222 3593 c2 -10 14 -19 26 -21 19 -3 23 1 20 15 -2 10 -14 19 -26
21 -19 3 -23 -1 -20 -15z"/>
<path d="M4290 3526 c0 -9 5 -16 10 -16 6 0 10 4 10 9 0 6 -4 13 -10 16 -5 3
-10 -1 -10 -9z"/>
<path d="M5100 3520 c0 -5 5 -10 10 -10 6 0 10 5 10 10 0 6 -4 10 -10 10 -5 0
-10 -4 -10 -10z"/>
<path d="M4642 3393 c2 -10 10 -18 18 -18 8 0 16 8 18 18 2 12 -3 17 -18 17
-15 0 -20 -5 -18 -17z"/>
<path d="M4714 3376 c-8 -22 3 -33 18 -18 9 9 9 15 0 24 -9 9 -13 7 -18 -6z"/>
<path d="M5004 3325 c-18 -19 -40 -35 -49 -35 -24 0 -13 -22 23 -45 40 -26 41
-43 2 -37 -18 3 -30 0 -30 -7 0 -6 -9 -11 -19 -11 -11 0 -23 -5 -26 -10 -9
-15 24 -25 38 -11 16 16 87 14 87 -3 0 -20 49 -49 74 -42 11 3 29 18 38 34 10
17 36 36 63 47 50 21 55 29 25 45 -24 13 -86 -23 -120 -69 -12 -17 -26 -31
-31 -31 -6 0 -19 20 -30 45 -15 34 -17 49 -9 65 16 29 46 42 85 34 44 -8 40
10 -8 44 -47 31 -74 28 -113 -13z"/>
<path d="M4808 3333 c-28 -33 -28 -41 -7 -77 26 -44 60 -67 52 -36 -8 31 14
50 48 43 36 -7 36 2 4 50 -29 42 -71 50 -97 20z"/>
<path d="M4930 3325 c0 -8 5 -15 10 -15 6 0 10 7 10 15 0 8 -4 15 -10 15 -5 0
-10 -7 -10 -15z"/>
<path d="M4870 3190 c0 -5 5 -10 11 -10 5 0 7 5 4 10 -3 6 -8 10 -11 10 -2 0
-4 -4 -4 -10z"/>
<path d="M2600 3340 c0 -5 5 -10 10 -10 6 0 10 5 10 10 0 6 -4 10 -10 10 -5 0
-10 -4 -10 -10z"/>
<path d="M2636 3333 c-11 -11 -6 -23 9 -23 8 0 15 4 15 9 0 13 -16 22 -24 14z"/>
<path d="M2715 3080 c4 -6 11 -8 16 -5 14 9 11 15 -7 15 -8 0 -12 -5 -9 -10z"/>
<path d="M2160 3050 c0 -11 -5 -20 -12 -20 -9 0 -9 -3 0 -12 9 -9 20 -9 48 1
41 15 56 7 28 -14 -22 -16 -94 -20 -94 -5 0 6 -7 10 -15 10 -48 0 31 -208 87
-229 13 -5 63 -12 111 -16 84 -7 89 -6 94 13 3 12 15 22 26 24 12 2 23 11 25
21 3 14 -5 17 -50 18 -45 1 -48 2 -22 8 76 19 71 36 -12 38 -75 2 -104 17 -54
28 55 12 21 20 -71 16 -60 -2 -89 1 -89 8 0 7 32 11 94 11 51 0 107 5 124 11
22 8 36 7 53 -1 19 -11 21 -10 16 5 -4 9 -7 18 -7 20 0 2 -43 1 -95 -2 -68 -4
-95 -3 -95 6 0 6 18 11 46 11 32 0 44 4 41 13 -2 7 -17 11 -34 9 -20 -2 -38 5
-59 23 -36 31 -84 34 -84 5z m106 -231 c4 -7 23 -9 50 -5 46 6 74 0 74 -16 0
-5 -32 -8 -72 -6 -60 2 -73 6 -76 21 -4 19 13 23 24 6z"/>
<path d="M2725 3029 c-28 -23 -52 -43 -54 -44 -1 -2 0 -8 4 -14 4 -8 12 -8 26
-1 13 7 19 7 19 0 0 -5 -5 -10 -12 -10 -6 0 -9 -3 -6 -6 9 -9 76 39 89 64 10
18 10 25 -2 37 -13 13 -21 10 -64 -26z"/>
<path d="M3040 2995 c-7 -8 -8 -15 -2 -15 5 0 15 7 22 15 7 8 8 15 2 15 -5 0
-15 -7 -22 -15z"/>
<path d="M2790 2879 c-19 -22 -54 -62 -77 -88 -24 -27 -43 -54 -43 -60 0 -25
7 -18 128 124 14 17 32 38 40 48 13 14 13 17 1 17 -8 0 -30 -19 -49 -41z"/>
<path d="M2785 2804 c-22 -31 -49 -66 -60 -78 -46 -49 -49 -56 -27 -56 12 0
23 8 27 19 3 11 23 37 43 58 41 42 72 87 72 103 0 22 -17 8 -55 -46z"/>
<path d="M3165 2800 c3 -5 8 -10 11 -10 2 0 4 5 4 10 0 6 -5 10 -11 10 -5 0
-7 -4 -4 -10z"/>
<path d="M3110 2755 c0 -10 7 -15 18 -13 21 4 19 22 -2 26 -10 2 -16 -3 -16
-13z"/>
<path d="M2820 2749 c0 -5 5 -7 10 -4 6 3 10 8 10 11 0 2 -4 4 -10 4 -5 0 -10
-5 -10 -11z"/>
<path d="M2797 2561 c-3 -14 -1 -18 9 -14 8 3 14 11 14 19 0 21 -17 17 -23 -5z"/>
<path d="M2445 2541 c-3 -5 -1 -12 5 -16 5 -3 10 1 10 9 0 18 -6 21 -15 7z"/>
<path d="M2377 2502 c-10 -11 -17 -36 -17 -61 0 -27 -8 -52 -22 -71 -12 -16
-19 -33 -15 -36 8 -8 77 43 77 58 0 5 6 8 14 5 22 -9 26 3 11 34 -8 15 -15 42
-15 59 0 34 -10 38 -33 12z"/>
<path d="M2430 2476 c0 -8 5 -18 10 -21 6 -3 10 1 10 9 0 8 -4 18 -10 21 -5 3
-10 -1 -10 -9z"/>
<path d="M2272 2451 c-30 -28 -43 -61 -23 -61 13 0 71 62 71 77 0 20 -13 16
-48 -16z"/>
<path d="M2220 2454 c0 -8 5 -12 10 -9 6 3 10 10 10 16 0 5 -4 9 -10 9 -5 0
-10 -7 -10 -16z"/>
<path d="M2291 2393 c-27 -34 -9 -46 22 -14 15 15 18 24 10 32 -7 7 -17 3 -32
-18z"/>
<path d="M3258 2393 c7 -3 16 -2 19 1 4 3 -2 6 -13 5 -11 0 -14 -3 -6 -6z"/>
<path d="M4747 2045 c-26 -24 -47 -51 -47 -59 0 -8 -7 -16 -15 -19 -22 -9 -66
-84 -59 -102 7 -18 44 -20 44 -2 0 7 9 29 20 50 11 20 20 44 20 52 0 8 4 15 9
15 15 0 91 79 91 95 0 24 -14 18 -63 -30z"/>
<path d="M4960 2060 c-15 -28 -11 -31 26 -21 34 9 39 35 7 39 -14 2 -26 -4
-33 -18z"/>
<path d="M4410 2000 c0 -5 5 -10 10 -10 6 0 10 5 10 10 0 6 -4 10 -10 10 -5 0
-10 -4 -10 -10z"/>
<path d="M5033 1994 c-8 -20 13 -42 27 -28 12 12 3 44 -11 44 -5 0 -12 -7 -16
-16z"/>
<path d="M8723 5183 c54 -2 139 -2 190 0 51 1 7 3 -98 3 -104 0 -146 -2 -92
-3z"/>
<path d="M3893 1854 c-3 -8 -1 -20 6 -27 25 -25 5 -185 -28 -222 -24 -26 -51
-83 -51 -107 0 -12 7 -18 23 -18 48 0 142 252 109 292 -5 7 -13 32 -17 56 -7
43 -30 57 -42 26z"/>
<path d="M3832 1772 c-16 -78 -16 -145 0 -140 14 5 43 161 34 184 -11 28 -22
13 -34 -44z"/>
<path d="M5385 1781 c-3 -6 2 -14 11 -19 14 -8 13 -11 -7 -28 -15 -12 -25 -31
-26 -52 l-2 -33 32 18 c41 23 51 39 53 86 2 39 -4 45 -24 25 -9 -9 -12 -9 -12
0 0 14 -16 16 -25 3z"/>
<path d="M3550 1726 c0 -9 5 -16 10 -16 6 0 10 4 10 9 0 6 -4 13 -10 16 -5 3
-10 -1 -10 -9z"/>
<path d="M3530 1681 c0 -6 5 -13 10 -16 6 -3 10 1 10 9 0 9 -4 16 -10 16 -5 0
-10 -4 -10 -9z"/>
<path d="M5180 1645 c-19 -19 -40 -35 -47 -35 -14 0 -17 20 -5 36 4 5 -3 -1
-15 -14 -13 -13 -23 -32 -23 -42 0 -10 -4 -22 -10 -25 -13 -8 -13 -105 -1
-105 17 0 81 67 81 84 0 9 6 16 13 16 20 1 84 62 70 67 -7 3 -13 16 -13 29 0
32 -10 30 -50 -11z m40 -27 c0 -14 -62 -58 -82 -58 -6 0 3 16 22 35 34 36 60
45 60 23z"/>
<path d="M5405 1646 c-11 -13 -33 -29 -49 -37 -16 -8 -31 -20 -34 -27 -2 -8
13 -5 45 10 50 24 72 44 73 66 0 18 -12 14 -35 -12z"/>
<path d="M3522 1610 c0 -19 2 -27 5 -17 2 9 2 25 0 35 -3 9 -5 1 -5 -18z"/>
<path d="M5395 1574 c-16 -13 -35 -24 -42 -24 -20 0 -73 -34 -73 -47 0 -17 17
-16 23 1 3 7 27 20 53 27 27 8 53 24 62 37 21 32 12 34 -23 6z"/>
<path d="M4474 1496 c-6 -16 23 -66 37 -66 12 0 11 27 -1 35 -5 3 -10 15 -10
26 0 22 -18 26 -26 5z"/>
<path d="M5158 1463 c7 -3 16 -2 19 1 4 3 -2 6 -13 5 -11 0 -14 -3 -6 -6z"/>
</g>
</svg>
